<svg width="102" height="100" viewBox="0 0 102 100" fill="none" xmlns="http://www.w3.org/2000/svg">
<rect width="102" height="100" rx="6" fill="#FF9F0D"/>
<path d="M51 60.5V72.75" stroke="white" stroke-width="2" stroke-linecap="round" stroke-linejoin="round"/>
<path d="M42.25 72.75H59.75" stroke="white" stroke-width="2" stroke-linecap="round" stroke-linejoin="round"/>
<path d="M40.5001 27.25H61.5001L67.2094 46.5656C67.5613 47.7756 67.4682 49.0715 66.9469 50.2187C65.5604 53.2864 63.3185 55.8891 60.49 57.7147C57.6616 59.5403 54.3665 60.5113 51.0001 60.5113C47.6336 60.5113 44.3386 59.5403 41.5101 57.7147C38.6816 55.8891 36.4397 53.2864 35.0532 50.2187C34.5319 49.0715 34.4388 47.7756 34.7907 46.5656L40.5001 27.25Z" stroke="white" stroke-width="2" stroke-linecap="round" stroke-linejoin="round"/>
<path d="M35.5781 43.9406C37.8969 42.6938 43.2781 40.9 51 44.75C59.225 48.8625 64.8031 46.5438 66.8375 45.3406" stroke="white" stroke-width="2" stroke-linecap="round" stroke-linejoin="round"/>
</svg>
