<svg width="102" height="100" viewBox="0 0 102 100" fill="none" xmlns="http://www.w3.org/2000/svg">
<path d="M0 6C0 2.68629 2.68629 0 6 0H96C99.3137 0 102 2.68629 102 6V94C102 97.3137 99.3137 100 96 100H6C2.68629 100 0 97.3137 0 94V6Z" fill="#FF9F0D"/>
<path d="M33.6751 43C33.414 42.9994 33.1563 42.9405 32.921 42.8274C32.6857 42.7144 32.4787 42.5501 32.3151 42.3466C32.1515 42.1432 32.0355 41.9057 31.9755 41.6516C31.9156 41.3975 31.9133 41.1332 31.9688 40.8781C33.3688 34.1406 41.3532 29 51.0001 29C60.6469 29 68.6313 34.1406 70.0313 40.8781C70.0868 41.1332 70.0845 41.3975 70.0246 41.6516C69.9646 41.9057 69.8486 42.1432 69.685 42.3466C69.5214 42.5501 69.3144 42.7144 69.0791 42.8274C68.8438 42.9405 68.5861 42.9994 68.325 43H33.6751Z" stroke="white" stroke-width="2" stroke-linecap="round" stroke-linejoin="round"/>
<path d="M68.5 58.75V62.25C68.5 64.1065 67.7625 65.887 66.4497 67.1997C65.137 68.5125 63.3565 69.25 61.5 69.25H40.5C38.6435 69.25 36.863 68.5125 35.5503 67.1997C34.2375 65.887 33.5 64.1065 33.5 62.25V58.75" stroke="white" stroke-width="2" stroke-linecap="round" stroke-linejoin="round"/>
<path d="M29.125 60.5L37.875 57L46.625 60.5L55.375 57L64.125 60.5L72.875 57" stroke="white" stroke-width="2" stroke-linecap="round" stroke-linejoin="round"/>
<path d="M28.25 50H73.75" stroke="white" stroke-width="2" stroke-linecap="round" stroke-linejoin="round"/>
</svg>
