<svg width="102" height="100" viewBox="0 0 102 100" fill="none" xmlns="http://www.w3.org/2000/svg">
<rect width="102" height="100" rx="6" fill="#FF9F0D"/>
<path d="M72 49.8687C72.0203 52.6512 71.4852 55.4097 70.426 57.9827C69.3667 60.5557 67.8046 62.8914 65.8312 64.8531C57.7594 72.925 44.5469 73.0125 36.3656 65.05C33.3641 62.1292 31.3045 58.3778 30.4513 54.2775C29.5982 50.1773 29.9905 45.9156 31.5779 42.0401C33.1653 38.1645 35.8752 34.8521 39.3595 32.5284C42.8438 30.2048 46.9433 28.976 51.1312 29C51.3933 29.0038 51.6512 29.0658 51.8864 29.1813C52.1216 29.2969 52.3283 29.4632 52.4915 29.6682C52.6547 29.8733 52.7704 30.112 52.8302 30.3671C52.89 30.6223 52.8925 30.8875 52.8375 31.1437C52.6096 32.16 52.6113 33.2144 52.8426 34.2299C53.0738 35.2455 53.5288 36.1966 54.1744 37.014C54.8199 37.8314 55.6397 38.4944 56.574 38.9548C57.5083 39.4151 58.5335 39.6612 59.575 39.675C60.0391 39.675 60.4842 39.8594 60.8124 40.1875C61.1406 40.5157 61.325 40.9609 61.325 41.425C61.3388 42.4664 61.5848 43.4917 62.0452 44.426C62.5055 45.3603 63.1686 46.1801 63.986 46.8256C64.8033 47.4711 65.7545 47.9261 66.77 48.1574C67.7856 48.3887 68.8399 48.3904 69.8562 48.1625C70.1125 48.1074 70.3777 48.1099 70.6329 48.1698C70.888 48.2296 71.1267 48.3453 71.3317 48.5085C71.5368 48.6717 71.7031 48.8783 71.8186 49.1136C71.9342 49.3488 71.9961 49.6067 72 49.8687V49.8687Z" stroke="white" stroke-width="2" stroke-linecap="round" stroke-linejoin="round"/>
<path d="M57.125 62.25C58.5747 62.25 59.75 61.0747 59.75 59.625C59.75 58.1753 58.5747 57 57.125 57C55.6753 57 54.5 58.1753 54.5 59.625C54.5 61.0747 55.6753 62.25 57.125 62.25Z" fill="white"/>
<path d="M43.125 60.5C44.5747 60.5 45.75 59.3247 45.75 57.875C45.75 56.4253 44.5747 55.25 43.125 55.25C41.6753 55.25 40.5 56.4253 40.5 57.875C40.5 59.3247 41.6753 60.5 43.125 60.5Z" fill="white"/>
<path d="M41.375 48.25C42.8247 48.25 44 47.0747 44 45.625C44 44.1753 42.8247 43 41.375 43C39.9253 43 38.75 44.1753 38.75 45.625C38.75 47.0747 39.9253 48.25 41.375 48.25Z" fill="white"/>
<path d="M52.75 51.75C54.1997 51.75 55.375 50.5747 55.375 49.125C55.375 47.6753 54.1997 46.5 52.75 46.5C51.3003 46.5 50.125 47.6753 50.125 49.125C50.125 50.5747 51.3003 51.75 52.75 51.75Z" fill="white"/>
</svg>
