<svg width="49" height="49" viewBox="0 0 49 49" fill="none" xmlns="http://www.w3.org/2000/svg">
<path d="M20.8487 27.9133H8.10651C7.70892 27.9133 7.32763 27.7553 7.04649 27.4741C6.76536 27.1928 6.60742 26.8114 6.60742 26.4137V14.4166C6.60742 14.0189 6.76536 13.6375 7.04649 13.3562C7.32763 13.075 7.70892 12.917 8.10651 12.917H19.3496C19.7472 12.917 20.1285 13.075 20.4097 13.3562C20.6908 13.6375 20.8487 14.0189 20.8487 14.4166V30.9126C20.8487 32.9012 20.059 34.8084 18.6534 36.2146C17.2477 37.6207 15.3412 38.4107 13.3533 38.4107" stroke="#FF9F0D" stroke-width="1.5" stroke-linecap="round" stroke-linejoin="round"/>
<path d="M42.5855 27.9133H29.8433C29.4457 27.9133 29.0644 27.7553 28.7833 27.4741C28.5022 27.1928 28.3442 26.8114 28.3442 26.4137V14.4166C28.3442 14.0189 28.5022 13.6375 28.7833 13.3562C29.0644 13.075 29.4457 12.917 29.8433 12.917H41.0865C41.484 12.917 41.8653 13.075 42.1465 13.3562C42.4276 13.6375 42.5855 14.0189 42.5855 14.4166V30.9126C42.5855 32.9012 41.7958 34.8084 40.3902 36.2146C38.9845 37.6207 37.078 38.4107 35.0901 38.4107" stroke="#FF9F0D" stroke-width="1.5" stroke-linecap="round" stroke-linejoin="round"/>
</svg>
