<svg width="24" height="24" viewBox="0 0 24 24" fill="none" xmlns="http://www.w3.org/2000/svg">
<g clip-path="url(#clip0_308_10884)">
<path d="M12.0005 0.47998C5.63807 0.47998 0.480469 5.63758 0.480469 12C0.480469 18.3624 5.63807 23.52 12.0005 23.52C18.3629 23.52 23.5205 18.3624 23.5205 12C23.5205 5.63758 18.3629 0.47998 12.0005 0.47998ZM16.4309 13.4772C16.4309 13.4772 17.4497 14.4828 17.7005 14.9496C17.7077 14.9592 17.7113 14.9688 17.7137 14.9736C17.8157 15.1452 17.8397 15.2784 17.7893 15.378C17.7053 15.5436 17.4173 15.6252 17.3189 15.6324H15.5189C15.3941 15.6324 15.1325 15.6 14.8157 15.3816C14.5721 15.2112 14.3321 14.9316 14.0981 14.6592C13.7489 14.2536 13.4465 13.9032 13.1417 13.9032C13.103 13.9031 13.0645 13.9092 13.0277 13.9212C12.7973 13.9956 12.5021 14.3244 12.5021 15.2004C12.5021 15.474 12.2861 15.6312 12.1337 15.6312H11.3093C11.0285 15.6312 9.56567 15.5328 8.26967 14.166C6.68327 12.492 5.25527 9.13438 5.24327 9.10318C5.15327 8.88598 5.33927 8.76958 5.54207 8.76958H7.36007C7.60247 8.76958 7.68167 8.91718 7.73687 9.04798C7.80167 9.20038 8.03927 9.80638 8.42927 10.488C9.06167 11.5992 9.44927 12.0504 9.76007 12.0504C9.81835 12.0497 9.87559 12.0349 9.92687 12.0072C10.3325 11.7816 10.2569 10.3356 10.2389 10.0356C10.2389 9.97918 10.2377 9.38878 10.0301 9.10558C9.88127 8.90038 9.62807 8.82238 9.47447 8.79358C9.53664 8.70779 9.61855 8.63823 9.71327 8.59078C9.99167 8.45158 10.4933 8.43118 10.9913 8.43118H11.2685C11.8085 8.43838 11.9477 8.47318 12.1433 8.52238C12.5393 8.61718 12.5477 8.87278 12.5129 9.74758C12.5021 9.99598 12.4913 10.2768 12.4913 10.608C12.4913 10.68 12.4877 10.7568 12.4877 10.8384C12.4757 11.2836 12.4613 11.7888 12.7757 11.9964C12.8167 12.0221 12.8641 12.0358 12.9125 12.036C13.0217 12.036 13.3505 12.036 14.2409 10.5084C14.5155 10.0167 14.7541 9.50575 14.9549 8.97958C14.9729 8.94838 15.0257 8.85238 15.0881 8.81518C15.1341 8.7917 15.1852 8.77976 15.2369 8.78038H17.3741C17.6069 8.78038 17.7665 8.81518 17.7965 8.90518C17.8493 9.04798 17.7869 9.48358 16.8113 10.8048L16.3757 11.3796C15.4913 12.5388 15.4913 12.5976 16.4309 13.4772Z" fill="#4F4F4F"/>
</g>
<defs>
<clipPath id="clip0_308_10884">
<rect width="24" height="24" fill="white"/>
</clipPath>
</defs>
</svg>
